<svg width="266" height="200" viewBox="0 0 266 200" fill="none" xmlns="http://www.w3.org/2000/svg">
<g clip-path="url(#clip0_2_2800)">
<path d="M46.6656 200C37.0786 199.621 29.8501 196.911 24.9801 191.872C20.1101 186.832 17.6751 178.536 17.6751 166.985V133.184C17.6751 115.239 11.7834 105.39 0 103.637V96.3625C11.7924 94.7007 17.6841 85.4975 17.6751 68.7529V33.0692C17.6751 21.5539 20.1101 13.2584 24.9801 8.18263C29.8501 3.10688 37.0786 0.3974 46.6656 0.0541992V9.60509C40.0222 9.98442 35.3412 12.1429 32.6227 16.0807C29.9041 20.0185 28.5538 26.7922 28.5718 36.4018V69.7013C28.5718 86.5091 23.0987 96.5838 12.1525 99.9255V100.386C23.0987 103.863 28.5718 114.507 28.5718 132.317V163.679C28.5718 173.298 29.9221 180.072 32.6227 184.001C35.3232 187.929 40.0042 190.088 46.6656 190.476V200Z" fill="#03224E"/>
<path d="M55.5371 13.8862H63.8548L73.7658 31.8636H74.1574L84.0549 13.8862H92.3455L77.6141 39.3553V54.5148H70.2956V39.3553L55.5371 13.8862Z" fill="#03224E"/>
<path d="M104.822 55.1107C102.121 55.1755 99.4547 54.4962 97.1121 53.1464C94.9378 51.8369 93.1847 49.9276 92.0621 47.6461C90.8787 45.0553 90.2661 42.2389 90.2661 39.389C90.2661 36.5391 90.8787 33.7227 92.0621 31.1319C93.1768 28.8415 94.9314 26.9257 97.1121 25.6181C99.4801 24.3328 102.13 23.6597 104.822 23.6597C107.514 23.6597 110.164 24.3328 112.532 25.6181C114.71 26.9294 116.464 28.8441 117.582 31.1319C118.757 33.7251 119.365 36.5405 119.365 39.389C119.365 42.2374 118.757 45.053 117.582 47.6461C116.455 49.9246 114.703 51.8328 112.532 53.1464C110.188 54.4923 107.522 55.1714 104.822 55.1107ZM104.822 49.353C106.291 49.4055 107.729 48.9245 108.873 47.9983C109.998 47.0438 110.839 45.7971 111.304 44.3947C112.366 41.1149 112.366 37.5817 111.304 34.3019C110.835 32.8935 109.996 31.6387 108.873 30.6712C107.729 29.745 106.291 29.264 104.822 29.3165C103.355 29.2771 101.921 29.7567 100.771 30.6712C99.6405 31.6312 98.7988 32.8885 98.3408 34.3019C97.2603 37.5789 97.2603 41.1178 98.3408 44.3947C98.7954 45.8022 99.6382 47.0516 100.771 47.9983C101.932 48.922 103.382 49.4021 104.863 49.353H104.822Z" fill="#03224E"/>
<path d="M144.777 41.6987V24.0871H151.933V54.5551H144.993V49.1362H144.669C143.986 50.8351 142.816 52.2922 141.306 53.3223C139.598 54.4486 137.584 55.0165 135.541 54.948C133.695 54.9836 131.875 54.5154 130.275 53.5932C128.727 52.6726 127.482 51.3158 126.696 49.6916C125.795 47.7462 125.356 45.6177 125.414 43.4734V24.0464H132.57V42.3354C132.483 44.0139 133.049 45.6608 134.15 46.9279C134.68 47.4953 135.326 47.9414 136.044 48.236C136.762 48.5305 137.534 48.6666 138.309 48.6349C139.378 48.6313 140.43 48.3663 141.374 47.8627C142.378 47.3266 143.222 46.5316 143.818 45.5596C144.491 44.3881 144.824 43.0504 144.777 41.6987Z" fill="#03224E"/>
<path d="M159.278 54.5145V24.0464H166.219V29.1267H166.543C167.014 27.4908 168.017 26.0601 169.392 25.0625C170.745 24.1035 172.367 23.6007 174.023 23.6264H175.374C175.79 23.6529 176.205 23.7026 176.616 23.7754V30.3866C176.149 30.2453 175.67 30.1501 175.185 30.1021C174.559 30.0117 173.927 29.9664 173.294 29.9666C172.072 29.947 170.865 30.2358 169.784 30.8065C168.774 31.3469 167.929 32.1523 167.34 33.1367C166.734 34.18 166.425 35.3704 166.448 36.5777V54.4874L159.278 54.5145Z" fill="#03224E"/>
<path d="M72.0239 121.534H58.3052V80.8916H72.294C75.9015 80.7869 79.4745 81.6224 82.6641 83.3165C85.5361 84.9165 87.8607 87.3479 89.3345 90.2934C90.8745 93.7144 91.671 97.425 91.671 101.179C91.671 104.932 90.8745 108.643 89.3345 112.064C87.8422 115.03 85.4881 117.473 82.5831 119.068C79.3307 120.78 75.6957 121.629 72.0239 121.534ZM65.6372 115.166H71.6594C74.1068 115.254 76.5364 114.718 78.7213 113.609C80.6159 112.572 82.1124 110.933 82.9747 108.948C84.8654 103.952 84.8654 98.4331 82.9747 93.4365C82.1147 91.4782 80.6399 89.8558 78.7753 88.8167C76.6471 87.727 74.2768 87.2001 71.889 87.2859H65.6372V115.166Z" fill="#03224E"/>
<path d="M111.749 122.13C109.003 122.202 106.287 121.542 103.877 120.22C101.684 118.957 99.913 117.071 98.7861 114.801C97.6068 112.199 96.9966 109.374 96.9966 106.516C96.9966 103.658 97.6068 100.834 98.7861 98.2321C99.9024 95.9451 101.639 94.02 103.796 92.6778C106.084 91.3122 108.709 90.6219 111.371 90.6862C113.179 90.6746 114.975 90.9819 116.677 91.594C118.335 92.1898 119.846 93.137 121.106 94.3712C122.453 95.7277 123.486 97.365 124.131 99.1669C124.917 101.383 125.293 103.724 125.238 106.076V108.284H100.312V103.434H118.338C118.346 102.157 118.045 100.898 117.46 99.763C116.9 98.7052 116.059 97.8237 115.03 97.2161C113.938 96.5756 112.689 96.252 111.425 96.2813C110.063 96.2556 108.723 96.6223 107.563 97.3381C106.491 98.0111 105.605 98.9426 104.984 100.048C104.375 101.209 104.055 102.501 104.052 103.814V108.027C104.008 109.6 104.341 111.162 105.024 112.579C105.612 113.797 106.553 114.808 107.725 115.478C108.963 116.167 110.361 116.513 111.776 116.481C112.735 116.494 113.689 116.343 114.598 116.033C115.419 115.744 116.17 115.282 116.799 114.679C117.41 114.071 117.872 113.329 118.149 112.511L124.9 113.27C124.498 114.992 123.672 116.585 122.497 117.903C121.248 119.261 119.699 120.305 117.974 120.951C115.989 121.727 113.878 122.127 111.749 122.13Z" fill="#03224E"/>
<path d="M157.537 91.0654L146.734 121.533H138.835L128.033 91.0654H135.662L142.643 113.703H142.954L149.962 91.0654H157.537Z" fill="#03224E"/>
<path d="M198.977 101.226C199.088 105.114 198.248 108.969 196.533 112.457C195.046 115.43 192.74 117.912 189.889 119.61C186.979 121.24 183.702 122.096 180.37 122.096C177.037 122.096 173.76 121.24 170.85 119.61C168.007 117.902 165.704 115.422 164.207 112.457C162.608 108.932 161.781 105.105 161.781 101.233C161.781 97.3604 162.608 93.5331 164.207 90.0086C165.704 87.043 168.007 84.5632 170.85 82.8557C173.761 81.2292 177.038 80.3755 180.37 80.3755C183.702 80.3755 186.978 81.2292 189.889 82.8557C192.74 84.5531 195.046 87.0357 196.533 90.0086C198.248 93.4914 199.087 97.3427 198.977 101.226ZM191.604 101.226C191.686 98.5523 191.198 95.892 190.173 93.4226C189.351 91.4585 187.97 89.781 186.203 88.5998C184.445 87.528 182.427 86.9612 180.37 86.9612C178.312 86.9612 176.295 87.528 174.536 88.5998C172.775 89.783 171.399 91.4603 170.58 93.4226C168.672 98.4486 168.672 104.003 170.58 109.029C171.399 110.992 172.775 112.669 174.536 113.852C176.295 114.924 178.312 115.491 180.37 115.491C182.427 115.491 184.445 114.924 186.203 113.852C187.97 112.671 189.351 110.993 190.173 109.029C191.195 106.559 191.683 103.899 191.604 101.226Z" fill="#03224E"/>
<path d="M205.633 132.954V91.0656H212.668V96.1052H213.087C213.524 95.2617 214.049 94.467 214.653 93.7344C215.392 92.8332 216.312 92.0991 217.354 91.5804C218.721 90.9247 220.228 90.6131 221.742 90.6727C223.987 90.6437 226.192 91.2697 228.088 92.4745C230.067 93.7637 231.633 95.5982 232.598 97.758C233.79 100.459 234.362 103.394 234.273 106.347C234.353 109.274 233.791 112.184 232.625 114.868C231.682 117.066 230.131 118.946 228.156 120.287C226.249 121.52 224.023 122.16 221.756 122.13C220.266 122.182 218.786 121.88 217.435 121.249C216.405 120.729 215.487 120.011 214.734 119.136C214.116 118.415 213.578 117.629 213.127 116.792H212.83V133.049L205.633 132.954ZM212.655 106.306C212.616 108.068 212.9 109.822 213.492 111.482C213.961 112.84 214.804 114.037 215.922 114.936C217.031 115.779 218.393 116.219 219.784 116.182C221.22 116.229 222.628 115.774 223.767 114.895C224.88 113.972 225.717 112.758 226.184 111.387C226.753 109.755 227.032 108.035 227.008 106.306C227.038 104.592 226.764 102.885 226.198 101.267C225.735 99.9087 224.897 98.7107 223.781 97.8122C222.62 97.013 221.246 96.5852 219.838 96.5852C218.431 96.5852 217.056 97.013 215.895 97.8122C214.778 98.6895 213.935 99.8695 213.465 101.213C212.892 102.848 212.613 104.573 212.641 106.306H212.655Z" fill="#03224E"/>
<path d="M264.397 99.1263L257.876 99.8307C257.674 99.1576 257.349 98.5281 256.917 97.9747C256.42 97.3835 255.791 96.9191 255.081 96.62C254.026 96.1987 252.89 96.0191 251.757 96.0941C250.624 96.1691 249.522 96.4968 248.532 97.0535C248.078 97.2984 247.699 97.662 247.435 98.1057C247.172 98.5494 247.032 99.0566 247.033 99.5733C247.014 99.9871 247.094 100.399 247.265 100.776C247.437 101.153 247.695 101.484 248.019 101.741C249.01 102.429 250.139 102.891 251.327 103.096L256.498 104.207C258.871 104.578 261.095 105.6 262.926 107.16C263.623 107.841 264.171 108.66 264.536 109.565C264.901 110.469 265.074 111.441 265.046 112.416C265.062 114.245 264.474 116.027 263.371 117.483C262.183 119.017 260.601 120.197 258.794 120.897C256.65 121.761 254.353 122.181 252.042 122.13C248.882 122.281 245.75 121.463 243.063 119.786C241.963 119.044 241.033 118.075 240.334 116.945C239.636 115.814 239.185 114.548 239.012 113.229L245.993 112.552C246.235 113.813 246.957 114.931 248.005 115.668C249.217 116.423 250.631 116.787 252.056 116.711C253.479 116.773 254.889 116.41 256.107 115.668C256.566 115.404 256.95 115.026 257.221 114.57C257.493 114.115 257.644 113.597 257.66 113.066C257.669 112.653 257.584 112.242 257.411 111.866C257.238 111.491 256.981 111.16 256.66 110.899C255.754 110.203 254.693 109.738 253.568 109.544L248.383 108.447C245.973 108.082 243.723 107.012 241.915 105.372C241.221 104.638 240.68 103.772 240.325 102.825C239.97 101.878 239.808 100.869 239.849 99.8578C239.795 98.1017 240.332 96.3786 241.375 94.9672C242.501 93.5205 244 92.4102 245.71 91.7565C247.753 90.962 249.932 90.5754 252.123 90.6185C255.118 90.4468 258.087 91.2498 260.59 92.908C262.624 94.3984 263.992 96.6321 264.397 99.1263Z" fill="#03224E"/>
<path d="M58.3052 147.938H67.271L79.3019 177.376H79.7745L91.792 147.938H100.771V188.58H93.7229V160.645H93.3449L82.1645 188.431H76.8984L65.7182 160.645H65.3401V188.62H58.3052V147.938Z" fill="#03224E"/>
<path d="M121.917 189.094C119.17 189.168 116.454 188.509 114.044 187.184C111.849 185.925 110.077 184.038 108.954 181.765C107.779 179.165 107.171 176.343 107.171 173.488C107.171 170.633 107.779 167.81 108.954 165.21C110.07 162.918 111.812 160.992 113.977 159.656C116.257 158.281 118.879 157.586 121.538 157.651C123.346 157.643 125.142 157.951 126.845 158.558C128.508 159.151 130.02 160.104 131.274 161.349C132.625 162.7 133.662 164.333 134.312 166.131C135.1 168.352 135.475 170.698 135.419 173.054V175.249H110.493V170.412H128.519C128.529 169.129 128.223 167.864 127.628 166.727C127.065 165.676 126.23 164.796 125.211 164.181C124.064 163.545 122.77 163.223 121.46 163.246C120.149 163.27 118.868 163.639 117.744 164.316C116.663 164.978 115.774 165.912 115.165 167.026C114.554 168.181 114.234 169.47 114.233 170.778V175.005C114.168 176.593 114.488 178.174 115.165 179.611C115.765 180.82 116.704 181.828 117.866 182.51C119.106 183.193 120.502 183.539 121.917 183.513C122.88 183.526 123.839 183.375 124.752 183.066C125.567 182.772 126.313 182.31 126.94 181.711C127.554 181.11 128.017 180.372 128.29 179.557L135.041 180.302C134.689 182.053 133.889 183.683 132.719 185.03C131.476 186.392 129.931 187.441 128.209 188.092C126.192 188.816 124.058 189.156 121.917 189.094Z" fill="#03224E"/>
<path d="M148.584 170.711V188.566H141.428V158.098H148.274V163.273H148.625C149.293 161.602 150.463 160.181 151.973 159.209C153.688 158.153 155.674 157.625 157.685 157.692C159.599 157.651 161.49 158.119 163.167 159.046C164.737 159.956 166.002 161.314 166.799 162.948C167.739 164.882 168.202 167.015 168.15 169.166V188.566H160.993V170.277C161.099 168.538 160.533 166.826 159.413 165.495C158.86 164.907 158.185 164.448 157.437 164.149C156.688 163.849 155.884 163.717 155.079 163.761C153.915 163.743 152.766 164.028 151.744 164.587C150.773 165.138 149.985 165.962 149.475 166.958C148.871 168.115 148.565 169.405 148.584 170.711Z" fill="#03224E"/>
<path d="M190.537 158.098V163.652H173.078V158.098H190.537ZM177.386 150.796H184.542V179.394C184.498 180.157 184.651 180.918 184.988 181.603C185.241 182.081 185.658 182.451 186.162 182.646C186.68 182.841 187.23 182.938 187.783 182.93C188.199 182.931 188.615 182.895 189.025 182.822C189.316 182.781 189.605 182.722 189.889 182.646L191.091 188.268C190.713 188.39 190.159 188.539 189.457 188.702C188.608 188.875 187.744 188.966 186.878 188.972C185.223 189.05 183.57 188.773 182.03 188.16C180.639 187.586 179.453 186.603 178.628 185.342C177.744 183.919 177.311 182.261 177.386 180.587V150.796Z" fill="#03224E"/>
<path d="M209.455 189.095C206.755 189.164 204.089 188.489 201.745 187.144C199.57 185.834 197.817 183.925 196.695 181.644C195.511 179.05 194.898 176.232 194.898 173.38C194.898 170.528 195.511 167.709 196.695 165.116C197.817 162.831 199.57 160.917 201.745 159.602C204.113 158.317 206.763 157.644 209.455 157.644C212.147 157.644 214.797 158.317 217.165 159.602C219.34 160.917 221.093 162.831 222.215 165.116C223.399 167.709 224.011 170.528 224.011 173.38C224.011 176.232 223.399 179.05 222.215 181.644C221.092 183.925 219.339 185.834 217.165 187.144C214.821 188.489 212.154 189.164 209.455 189.095ZM209.455 183.351C210.923 183.399 212.36 182.919 213.506 181.996C214.626 181.04 215.463 179.794 215.923 178.392C216.471 176.77 216.74 175.066 216.719 173.353C216.739 171.631 216.47 169.918 215.923 168.286C215.456 166.884 214.621 165.635 213.506 164.669C212.36 163.746 210.923 163.265 209.455 163.314C207.988 163.277 206.555 163.756 205.404 164.669C204.285 165.634 203.446 166.883 202.974 168.286C202.427 169.918 202.157 171.631 202.177 173.353C202.156 175.066 202.426 176.77 202.974 178.392C203.439 179.794 204.279 181.041 205.404 181.996C206.558 182.937 208.008 183.436 209.495 183.405L209.455 183.351Z" fill="#03224E"/>
<path d="M230.06 188.566V158.098H236.987V163.178H237.311C237.778 161.541 238.782 160.109 240.16 159.114C241.512 158.151 243.134 157.644 244.792 157.665H246.142C246.554 157.691 246.964 157.741 247.371 157.814V164.425C246.903 164.283 246.424 164.183 245.939 164.127C245.312 164.047 244.681 164.006 244.049 164.005C242.827 163.987 241.62 164.276 240.538 164.845C239.531 165.389 238.687 166.193 238.094 167.175C237.491 168.219 237.187 169.41 237.217 170.616V188.526L230.06 188.566Z" fill="#03224E"/>
</g>
<defs>
<clipPath id="clip0_2_2800">
<rect width="265.046" height="200" fill="white"/>
</clipPath>
</defs>
</svg>
